<mxfile host="app.diagrams.net" modified="2023-10-20T06:44:45.032Z" agent="Mozilla/5.0 (Windows NT 10.0; Win64; x64) AppleWebKit/537.36 (KHTML, like Gecko) Chrome/118.0.0.0 Safari/537.36" version="21.7.4" etag="WWYa-wKU3TkG3lvUSqSp" type="github">
  <diagram name="Page-1" id="Ln6xyKr3v1xQUGJ5zXF1">
    <mxGraphModel>
      <root>
        <mxCell id="0" />
        <mxCell id="1" parent="0" />
      </root>
    </mxGraphModel>
  </diagram>
</mxfile>
